# xmcd
# Copyright (C) 1995-1998 Ti Kan
#
# Track frame offsets:
#       150
#       12433
#       25320
#
# Disc length: 458 seconds
#
# Revision: 0
# Processed by: cddbd v1.5.2PL0 Copyright (c) Steve Scherf et al.
# Submitted via: CD-Transfer v1.0
#
DISCID=1b01c803
DTITLE=Herbert Plaschek - 
DYEAR=08
DGENRE=
TTITLE0=Beim Fischerwirt
TTITLE1=Tiroler Adler
TTITLE2=Nett Beinand Walzer
EXTD=
EXTT0=
EXTT1=
EXTT2=
PLAYORDER=
